<svg width="712" height="164" viewBox="0 0 712 164" fill="none" xmlns="http://www.w3.org/2000/svg">
<rect x="6.53184" y="6.48232" width="698.208" height="149.076" rx="74.5381" transform="matrix(0.999996 -0.00270782 0.00490225 0.999988 -0.0317538 1.94355)" fill="#A1A2A5"/>
<rect x="6.53184" y="6.48232" width="698.208" height="149.076" rx="74.5381" transform="matrix(0.999996 -0.00270782 0.00490225 0.999988 -0.0317538 1.94355)" stroke="#FD0202" stroke-width="13"/>
<rect x="6.53184" y="6.48232" width="698.208" height="149.076" rx="74.5381" transform="matrix(0.999996 -0.00270782 0.00490225 0.999988 -0.0317538 1.94355)" stroke="#0009E9" stroke-width="13"/>
<path d="M137.076 43.8346C137.588 43.7692 138.388 43.7351 139.476 43.7321L141.972 43.7254C146.26 43.7137 150.453 44.0224 154.552 44.6513C156.666 44.9656 158.3 45.2811 159.453 45.598L159.52 59.3259C158.56 59.2645 156.959 59.1088 154.718 58.8589C151.709 58.547 149.084 58.3941 146.844 58.4002C144.348 58.4069 142.332 58.5084 140.797 58.7046C139.326 58.8365 138.111 59.0958 137.153 59.4824L137.076 43.8346ZM142.303 111.309C135.903 111.326 130.813 110.796 127.031 109.718C123.314 108.576 120.488 106.696 118.555 104.077C116.687 101.586 115.391 98.2934 114.667 94.1994C114.007 90.0411 113.659 84.5061 113.626 77.5942C113.596 71.5142 113.796 66.5857 114.225 62.8085C114.719 59.0312 115.599 55.8608 116.867 53.2973C118.198 50.6697 120.14 48.6485 122.693 47.2336C125.31 45.7545 128.761 44.7531 133.046 44.2295L133.21 77.5411C133.227 81.1251 133.308 84.5809 133.452 87.9085C133.593 90.4681 134.082 92.3868 134.921 93.6645C135.823 94.9421 137.203 95.7383 139.06 96.0533C140.854 96.4324 143.511 96.6173 147.031 96.6077C150.679 96.5978 153.782 96.4294 156.341 96.1025C157.364 96.0357 158.612 95.8724 160.082 95.6124L160.151 109.532C157.018 110.245 153.468 110.734 149.502 111.001C147.327 111.199 144.927 111.301 142.303 111.309Z" fill="#FD0202"/>
<path d="M192.338 88.389C192.32 84.6771 192.286 82.2452 192.238 81.0933C192.144 79.3442 191.903 78.0862 191.515 77.3192C191.128 76.5096 190.506 76.0206 189.652 75.8523C188.798 75.7266 187.582 75.6659 186.003 75.6702C184.169 75.6751 182.974 75.7637 182.421 75.9359L182.372 65.952C182.755 65.9083 183.331 65.8854 184.099 65.8833L185.955 65.8783C190.734 65.8653 194.427 66.2393 197.033 67.0003C199.682 67.7184 201.608 68.9292 202.811 70.6326C203.928 72.2083 204.621 74.2757 204.889 76.835C205.2 79.3942 205.369 83.2337 205.394 88.3537C205.416 92.8336 205.326 96.2899 205.125 98.7224C204.966 101.112 204.506 103.097 203.746 104.678C202.901 106.472 201.585 107.841 199.798 108.785C198.053 109.728 195.603 110.354 192.447 110.661L192.338 88.389ZM186.176 110.934C179.947 110.951 175.464 110.28 172.726 108.922C171.315 108.243 170.201 107.329 169.385 106.179C168.568 105.029 167.964 103.602 167.572 101.896C167.223 100.404 167.001 98.6976 166.907 96.7779C166.812 94.8155 166.755 92.0423 166.738 88.4583C166.716 83.9784 166.784 80.5435 166.943 78.1538C167.145 75.7639 167.626 73.7573 168.386 72.1339C169.231 70.3822 170.525 69.0347 172.27 68.0913C174.015 67.1479 176.486 66.5013 179.685 66.1513L179.794 88.423C179.806 90.9403 179.861 93.3508 179.957 95.6546C180.051 97.4036 180.271 98.683 180.616 99.4928C181.004 100.302 181.625 100.77 182.479 100.896C183.205 101.064 184.422 101.146 186.128 101.142C187.878 101.137 189.072 101.07 189.711 100.94L189.76 110.86C189.376 110.904 188.8 110.927 188.032 110.929L186.176 110.934ZM212.478 68.1105L212.469 66.3185L225.269 66.2838L250.18 108.392L250.189 110.248L237.453 110.283L212.478 68.1105ZM237.892 82.3137L237.813 66.2499L249.973 66.2169L250.154 103.08L237.892 82.3137ZM212.504 73.4224L224.766 94.1892L224.845 110.317L212.685 110.35L212.504 73.4224ZM258.29 67.9864L258.282 66.1944L271.082 66.1598L295.992 108.268L296.001 110.124L283.265 110.159L258.29 67.9864ZM283.704 82.1896L283.626 66.1258L295.785 66.0929L295.966 102.956L283.704 82.1896ZM258.316 73.2983L270.578 94.0652L270.657 110.193L258.497 110.226L258.316 73.2983ZM304.094 66.0704L316.894 66.0357L317.11 110.067L304.31 110.102L304.094 66.0704ZM319.582 66.0284L335.838 65.9844L335.886 75.7763L319.63 75.8203L319.582 66.0284ZM319.665 82.9242L332.913 82.8884L332.961 92.6802L319.713 92.7161L319.665 82.9242ZM319.75 100.268L336.006 100.224L336.054 110.016L319.798 110.06L319.75 100.268ZM358.121 65.4761C358.462 65.4325 358.995 65.4097 359.721 65.4078L361.385 65.4032C364.243 65.3955 367.039 65.6013 369.772 66.0205C371.181 66.2301 372.27 66.4404 373.039 66.6517L373.084 75.8036C372.444 75.7626 371.376 75.6589 369.882 75.4922C367.876 75.2843 366.126 75.1824 364.633 75.1865C362.969 75.191 361.625 75.2586 360.602 75.3894C359.621 75.4774 358.811 75.6502 358.172 75.908L358.121 65.4761ZM361.606 110.459C357.339 110.47 353.945 110.117 351.424 109.398C348.946 108.637 347.062 107.383 345.774 105.638C344.528 103.977 343.664 101.782 343.181 99.0526C342.741 96.2804 342.51 92.5904 342.487 87.9824C342.467 83.9292 342.601 80.6435 342.887 78.1254C343.216 75.6071 343.803 73.4935 344.648 71.7846C345.535 70.0328 346.83 68.6853 348.532 67.7421C350.277 66.756 352.577 66.0884 355.434 65.7394L355.543 87.9471C355.555 90.3364 355.609 92.6403 355.705 94.8587C355.799 96.5651 356.125 97.8442 356.684 98.696C357.285 99.5477 358.205 100.079 359.444 100.289C360.64 100.541 362.411 100.665 364.758 100.658C367.19 100.652 369.258 100.539 370.964 100.321C371.646 100.277 372.478 100.168 373.458 99.9946L373.504 109.274C371.416 109.749 369.049 110.076 366.405 110.254C364.955 110.386 363.355 110.454 361.606 110.459ZM376.322 65.8748L412.354 65.7772L412.404 76.0171L376.372 76.1147L376.322 65.8748ZM387.969 78.6433L400.769 78.6086L400.922 109.84L388.122 109.875L387.969 78.6433ZM512.649 87.5217C512.631 83.8097 512.598 81.3778 512.549 80.2259C512.455 78.4769 512.215 77.2188 511.827 76.4519C511.439 75.6423 510.818 75.1533 509.964 74.9849C509.11 74.8592 507.893 74.7985 506.315 74.8028C504.48 74.8078 503.286 74.8963 502.732 75.0685L502.683 65.0846C503.067 65.0409 503.643 65.018 504.411 65.016L506.267 65.0109C511.045 64.998 514.738 65.372 517.344 66.1329C519.993 66.8511 521.919 68.0619 523.122 69.7653C524.239 71.3409 524.932 73.4084 525.201 75.9677C525.512 78.5268 525.68 82.3664 525.705 87.4863C525.727 91.9663 525.637 95.4225 525.436 97.8551C525.277 100.245 524.817 102.23 524.057 103.811C523.213 105.605 521.897 106.974 520.109 107.918C518.364 108.861 515.914 109.486 512.758 109.793L512.649 87.5217ZM506.488 110.066C500.258 110.083 495.775 109.413 493.038 108.055C491.626 107.376 490.512 106.462 489.696 105.312C488.88 104.162 488.275 102.734 487.883 101.029C487.534 99.5364 487.313 97.8303 487.218 95.9106C487.123 93.9481 487.067 91.175 487.049 87.591C487.027 83.1111 487.096 79.6762 487.255 77.2864C487.456 74.8965 487.937 72.8899 488.697 71.2665C489.542 69.5149 490.837 68.1674 492.581 67.224C494.326 66.2806 496.798 65.6339 499.996 65.2839L500.105 87.5556C500.117 90.0729 500.172 92.4835 500.269 94.7872C500.362 96.5363 500.582 97.8157 500.927 98.6254C501.315 99.4351 501.936 99.9027 502.79 100.028C503.516 100.197 504.733 100.279 506.44 100.275C508.189 100.27 509.383 100.203 510.023 100.073L510.071 109.993C509.687 110.036 509.112 110.059 508.344 110.061L506.488 110.066ZM550.919 109.946C546.439 109.958 542.981 109.605 540.546 108.886C538.11 108.167 536.312 106.999 535.152 105.381C534.078 103.89 533.408 101.993 533.14 99.6902C532.873 97.3869 532.728 93.9526 532.706 89.3874L532.589 65.4517L545.389 65.417L545.518 91.9127C545.526 93.4913 545.576 95.0059 545.669 96.4563C545.76 97.608 545.956 98.4395 546.257 98.9507C546.558 99.4619 547.072 99.7805 547.798 99.9065C548.438 100.075 549.463 100.158 550.871 100.154L552.343 100.15C552.684 100.149 553.068 100.106 553.494 100.019L553.543 109.875C553.244 109.918 552.818 109.941 552.263 109.942L550.919 109.946ZM556.012 65.3882L568.812 65.3536L568.93 89.2893C568.95 93.4706 568.88 96.6281 568.72 98.7619C568.56 100.896 568.099 102.689 567.339 104.142C566.493 105.808 565.198 107.091 563.453 107.992C561.708 108.893 559.301 109.475 556.23 109.74L556.012 65.3882ZM576.968 65.3315L589.768 65.2968L589.984 109.328L577.184 109.363L576.968 65.3315ZM595.158 94.3383L592.598 94.3452L592.55 84.5533L594.726 84.5474C596.049 84.5438 597.051 84.4985 597.734 84.4113C598.416 84.2814 598.948 84.0667 599.331 83.767C599.67 83.4674 599.903 83.0187 600.028 82.4211C600.153 81.8234 600.213 80.9486 600.207 79.7966C600.201 78.6446 600.133 77.7701 600.002 77.1731C599.871 76.5335 599.634 76.0648 599.291 75.767C598.948 75.4693 598.436 75.2787 597.752 75.1952C597.112 75.1116 596.088 75.0717 594.68 75.0755L592.504 75.0814L592.456 65.2895L599.048 65.2717C602.077 65.2635 604.532 65.5555 606.412 66.1478C608.292 66.74 609.748 67.6534 610.778 68.8879C611.722 70.0374 612.348 71.465 612.655 73.1709C613.004 74.8766 613.186 77.0734 613.199 79.7614C613.216 83.2174 612.909 85.8849 612.278 87.7639C611.394 90.1556 609.824 91.8452 607.567 92.8327L614.304 109.262L600.864 109.299L595.158 94.3383Z" fill="#0009E9"/>
<path d="M434.753 43.7006L453.953 43.6486L454.277 109.696L435.077 109.748L434.753 43.7006ZM457.985 43.6376L480.449 43.5768L480.521 58.2646L458.057 58.3255L457.985 43.6376ZM458.119 70.9013L477.031 70.8501L477.103 85.5379L458.191 85.5891L458.119 70.9013Z" fill="#F4F905"/>
</svg>
