<svg width="651" height="203" viewBox="0 0 651 203" fill="none" xmlns="http://www.w3.org/2000/svg">
<rect x="7.16329" y="9.65926" width="636" height="186" rx="93" transform="rotate(-0.208753 7.16329 9.65926)" fill="#A1A2A5"/>
<rect x="7.16329" y="9.65926" width="636" height="186" rx="93" transform="rotate(-0.208753 7.16329 9.65926)" stroke="#FD0202" stroke-width="13"/>
<rect x="7.16329" y="9.65926" width="636" height="186" rx="93" transform="rotate(-0.208753 7.16329 9.65926)" stroke="#0009E9" stroke-width="13"/>
<path d="M73.0639 126.072L95.5917 125.99L95.6458 140.838L63.1341 140.956C57.4828 135.686 53.1918 129.003 50.2609 120.907C47.3301 112.811 45.8491 104.496 45.818 95.963C45.7866 87.3444 47.3778 79.0612 50.5915 71.1134C53.8052 63.1656 58.6026 56.5774 64.9836 51.3488L95.3194 51.2383L95.3754 66.5982L72.8475 66.6803C70.5532 69.334 68.5634 73.6079 66.8782 79.5021C65.2783 85.396 64.4882 91.0309 64.5078 96.4069C64.5273 101.783 65.3585 107.412 67.0013 113.294C68.7294 119.176 70.7503 123.435 73.0639 126.072Z" fill="#FD0202"/>
<path d="M134.551 73.4955C139.044 77.1272 142.39 82.011 144.588 88.147C146.787 94.2831 147.898 100.615 147.921 107.143C147.945 113.607 146.911 119.755 144.821 125.586C142.73 131.418 139.388 136.454 134.796 140.695L115.02 140.767C110.396 136.56 107.018 131.548 104.885 125.732C102.752 119.916 101.673 113.776 101.65 107.312C101.626 100.784 102.691 94.4437 104.844 88.2919C106.998 82.14 110.308 77.2319 114.775 73.5676L134.551 73.4955ZM121.411 129.608L128.323 129.583C129.916 127.721 131.249 124.708 132.322 120.544C133.459 116.316 134.019 111.866 134.002 107.194C133.984 102.522 133.425 98.1398 132.322 94.0478C131.218 89.8918 129.864 86.8887 128.257 85.0385L121.249 85.0641C119.656 86.9259 118.291 89.9389 117.154 94.103C116.081 98.203 115.553 102.589 115.57 107.261C115.587 111.933 116.147 116.379 117.25 120.599C118.417 124.755 119.804 127.758 121.411 129.608ZM185.482 140.51L167.395 103.424L166.916 103.618L167.533 114.944L167.627 140.575L155.531 140.62L155.286 73.42L164.982 73.3846L182.786 111.912L183.266 111.718L182.167 99.9142L182.07 73.3224L194.166 73.2783L194.41 140.478L185.482 140.51ZM233.576 140.335L215.489 103.249L215.009 103.443L215.627 114.768L215.72 140.4L203.624 140.444L203.379 73.2447L213.075 73.2094L230.88 111.737L231.359 111.543L230.26 99.739L230.163 73.1472L242.259 73.1031L242.504 140.303L233.576 140.335ZM251.718 140.269L251.473 73.0695L285.936 72.944L285.978 84.4639L264.667 84.5415L264.725 100.573L283.733 100.504L283.773 111.64L264.766 111.709L264.829 129.085L286.525 129.006L286.565 140.142L251.718 140.269ZM311.644 128.915L328.54 128.853L328.581 139.989L304.197 140.078C299.959 136.125 296.74 131.113 294.542 125.041C292.344 118.969 291.233 112.733 291.21 106.333C291.186 99.869 292.38 93.6566 294.79 87.6958C297.2 81.735 300.798 76.7938 305.584 72.8724L328.336 72.7895L328.378 84.3094L311.482 84.371C309.761 86.3612 308.269 89.5667 307.005 93.9873C305.805 98.4077 305.213 102.634 305.227 106.666C305.242 110.698 305.865 114.92 307.097 119.331C308.393 123.742 309.909 126.937 311.644 128.915ZM346.268 84.2442L331.772 84.297L331.73 72.7771L373.778 72.6239L373.82 84.1438L359.324 84.1966L359.527 139.876L346.471 139.924L346.268 84.2442ZM485.267 72.2177C489.76 75.8494 493.106 80.7332 495.305 86.8692C497.503 93.0053 498.614 99.3373 498.638 105.865C498.661 112.329 497.628 118.477 495.537 124.309C493.446 130.14 490.105 135.177 485.512 139.417L465.736 139.489C461.113 135.282 457.735 130.27 455.601 124.454C453.468 118.638 452.39 112.498 452.366 106.034C452.342 99.5058 453.407 93.1659 455.561 87.014C457.714 80.8622 461.025 75.9541 465.491 72.2898L485.267 72.2177ZM472.128 128.33L479.039 128.305C480.633 126.443 481.966 123.43 483.039 119.266C484.175 115.038 484.735 110.588 484.718 105.916C484.701 101.244 484.141 96.862 483.038 92.77C481.935 88.614 480.58 85.6109 478.973 83.7607L471.965 83.7862C470.372 85.6481 469.007 88.6611 467.87 92.8252C466.797 96.9252 466.269 101.311 466.286 105.983C466.303 110.655 466.863 115.101 467.967 119.321C469.134 123.477 470.521 126.48 472.128 128.33ZM522.814 128.145L530.878 128.116C532.281 126.575 533.267 125.035 533.838 123.497C534.472 121.895 534.783 119.558 534.772 116.486L534.61 72.0379L547.762 71.99L547.906 111.638C547.918 114.902 547.832 117.462 547.646 119.319C547.525 121.111 547.149 123.321 546.519 125.947C545.448 130.623 542.456 135.05 537.543 139.228L516.231 139.305C511.288 135.291 508.264 130.886 507.159 126.09C506.185 122.19 505.687 117.424 505.667 111.792L505.522 72.1439L518.674 72.096L518.836 116.544C518.847 119.616 519.144 121.951 519.726 123.549C520.371 125.082 521.401 126.614 522.814 128.145ZM556.533 71.9581L582.069 71.865C586.106 73.1943 589.539 75.6778 592.368 79.3155C595.261 82.889 596.717 87.2997 596.736 92.5477C596.768 101.124 593.399 107.44 586.629 111.497L596.426 139.013L582.986 139.062L574.737 114.612L569.649 114.631L569.738 139.11L556.778 139.158L556.533 71.9581ZM569.535 83.4308L569.61 103.879L577.866 103.849C578.953 103.589 580.133 102.496 581.406 100.572C582.742 98.5827 583.406 96.2763 583.396 93.6523C583.387 91.0283 582.802 88.7265 581.643 86.7467C580.548 84.7666 579.456 83.6506 578.367 83.3986L569.535 83.4308Z" fill="#0009E9"/>
<path d="M401.628 139.723L401.301 50.1235L448.021 49.9533L448.077 65.3132L418.893 65.4195L418.975 87.8193L444.318 87.727L444.373 102.575L419.029 102.667L419.163 139.659L401.628 139.723Z" fill="#F4F905"/>
</svg>
